<?xml version="1.0" encoding="utf-8"?>
<!-- Generator: Adobe Illustrator 28.2.0, SVG Export Plug-In . SVG Version: 6.00 Build 0)  -->
<svg version="1.1" id="a" xmlns="http://www.w3.org/2000/svg" xmlns:xlink="http://www.w3.org/1999/xlink" x="0px" y="0px"
	 viewBox="0 0 452.4 75" style="enable-background:new 0 0 452.4 75;" xml:space="preserve">
<style type="text/css">
	.st0{fill:#037DB2;}
	.st1{fill:#057EB3;}
	.st2{fill:#077FB4;}
	.st3{fill:#3596C1;}
	.st4{fill:#9159A2;}
	.st5{fill:#399646;}
	.st6{fill:#C93C32;}
</style>
<path class="st0" d="M306.4,15.8c18.2-30.8,57,8.9,18.3,35.1c-5.7,4.3-11.3,8.7-16.4,13.8c-0.8,0.8-1.6,3.2-3.4,0.9
	c-6.5-8-15.6-12.8-23.1-19.7C254.9,22.4,287.4-14,306.4,15.8z"/>
<path class="st0" d="M223.4,65.5c-19.5,21.3-53.5,3.5-54.3-22.7c-6.5-34.4,37.7-58.9,60.2-30.2c8.3,11.6,4.2,14.3-8.4,12.4
	c-1.7,0.1-2.4-1.5-3-2.9c-4.5-11.6-22.2-11.1-28.6-1.8c-6.6,9.7-6.5,26.4,0.7,35.2c4.8,5.8,11.2,6.8,18.1,5.7
	c6.2,0.9,18.9-15.4,8.8-15.1c-5.2-0.4-12.7,2.5-11.9-5.7c0-4.7,1.4-6,6-5.8c6.6,0.4,13.3,0.3,20,0c3.4-0.1,4.2,1.1,4.1,4.3
	c-0.2,9.8,0,19.6-0.1,29.4c0,1.9,1.1,5.1-2.4,4.8C225.1,74,224.7,74,223.4,65.5L223.4,65.5z"/>
<path class="st0" d="M147.5,65.7c-20.2,21.3-54.8,2.2-54.4-24.6C88.3,5.2,133-14.5,153.6,12.9c8.2,11.7,3.7,14.2-8.8,12.1
	c-1.8,0-2.4-1.7-2.9-3.1c-4.1-10.8-21.2-10.9-27.7-2.5c-7.2,9.3-7.6,26.3-0.5,35.6c8,10.7,27.7,8.7,30.7-5.1c0.8-2.7,0-3.7-2.7-3.7
	c-6.2-0.8-13.8,3.1-12.4-6.1c-0.2-3.3,0-5.7,4.6-5.4c7.1,0.4,14.3,0.2,21.5,0.1c2.9-0.1,3.7,0.9,3.7,3.7c-0.1,10.1,0,20.3-0.1,30.5
	c0,1.8,0.8,4.8-2.4,4.3C149,74.1,149.5,74,147.5,65.7L147.5,65.7z"/>
<path class="st1" d="M69.4,47.7c0-7.3,0.1-14.6-0.1-21.9c-0.1-3.2,1-4.3,4.3-4.2c11.7,0.4,9.7-1.6,9.8,9.6
	c0.1,12.4-0.1,24.9,0.1,37.3c0.1,3.9-1.2,5.3-5.2,5c-9-0.6-9-0.5-9-9.8C69.4,58.3,69.4,53,69.4,47.7L69.4,47.7z"/>
<path class="st2" d="M77.8,13.7c-8.2,0-10.4-3.1-8.4-9.9c0.4-1.3,1.1-2,2.4-2c6.8,0.5,12.6-2.7,11.8,6.8
	C83.9,14.6,80,13.7,77.8,13.7L77.8,13.7z"/>
<path class="st3" d="M423.3,65.3c1.6,0.1,1.7,1.5,0.3,1.9C422.3,67.4,422.2,65.8,423.3,65.3z"/>
<g>
	<path class="st0" d="M47.8,34.1L47.8,34.1c14.8-9,9.3-32.8-9.8-31.9C26.8,1.7,15.4,2,4.1,1.8c-3,0-4.1,1-4.1,4
		c0.1,21.3,0,42.5-0.1,63.8c0,2.5,0.8,3.8,3.3,3.8c12.8,0,25.6,0.3,38.4-1.1c8.8-1,16.4-6.9,17-13.9C60.6,45.9,58.7,40.8,47.8,34.1z
		 M22.1,13.8c4,0.1,8,0.1,11.9,0.6c11.7,2.3,9.7,19.4-8.7,16.1c-6.6,0.1-9.9-3.2-9.9-9.9C15.4,13.8,15.4,13.7,22.1,13.8z M43.9,52.1
		c0,11.8-15,7.8-22.8,9.1c-7.7,1.3-4.7-6.9-5.8-11.6c0,0,0.1,0,0.1,0v0c-0.2-4.5-0.8-9.1,5.3-8.2C29.5,42.2,44.8,38.4,43.9,52.1z"/>
</g>
<g>
	<path class="st4" d="M452.4,57.2c-0.4,0.5-0.3,1.2-0.4,1.8c-1.7,7.2-7.7,12.7-15,13.7c-9.9,1.3-18.8-5.5-20-15.5
		c-1.3-10.3,6.1-18.7,15.3-19.8c9.9-1.2,18.5,5.4,20,15.3c0,0.1,0,0.3,0.1,0.3L452.4,57.2L452.4,57.2z"/>
	<path class="st5" d="M413.2,0.2c9.9,0,17.8,8,17.8,17.9c0,9.9-8,17.8-17.9,17.7c-9.8,0-17.7-8-17.7-17.8
		C395.4,8.1,403.4,0.2,413.2,0.2z"/>
	<path class="st6" d="M409.6,55.1c0,9.8-8,17.8-17.8,17.8c-9.8,0-17.8-8-17.8-17.8c0-9.8,8-17.8,17.9-17.8
		C401.7,37.3,409.6,45.3,409.6,55.1L409.6,55.1z"/>
</g>
</svg>
