<?xml version="1.0" encoding="UTF-8"?>
<svg id="a" xmlns="http://www.w3.org/2000/svg" viewBox="0 0 171.32 112.89">
  <path d="M170.69,28.84c.7,1.67.62,3.44.62,5.19,0,16.46,0,32.92.01,49.39-1.11,1.1-2.05,2.49-3.35,3.27-8.57,5.07-17.27,9.94-25.84,15.03-4.66,2.77-9.58,5.1-13.98,8.31-4.33,3.17-8.74,4.17-13.43.6-1.33-1.01-2.94-1.65-4.39-2.5-6.74-3.95-13.67-7.57-20.24-11.82-1.91-1.23-4.03-2.71-7-1.16-2.6,1.36-4.93,3.1-7.51,4.41-5.81,2.95-11.32,6.4-16.81,9.87-4.98,3.15-9.65,4.85-15.12.91-3.6-2.59-7.7-4.49-11.56-6.71-8.55-4.91-17.03-9.95-25.67-14.69C1.56,86.28-.07,82.5.04,77.06c.28-13.78.35-27.57-.03-41.35-.16-5.86,2.17-9.35,6.99-12.11,4.85-2.78,9.87-5.23,14.63-8.19,7.91-4.92,16.02-9.53,24.12-14.14,3.17-1.8,6.44-1.65,9.68.24,8.12,4.74,16.42,9.17,24.38,14.16,4.45,2.79,8.05,2.8,12.51-.08,7.83-5.07,15.98-9.66,24.14-14.19,2.72-1.51,5.87-1.67,8.81.1,3.19,1.92,6.4,3.78,9.64,5.61,6.39,3.62,13.01,6.87,19.14,10.9,5.53,3.63,12.06,5.74,16.64,10.82h0ZM7.62,56.17h-.01c0,6.39.29,12.8-.1,19.17-.27,4.51,1.83,7.1,5.32,9.12,1.54.89,3.11,1.73,4.65,2.62,9.36,5.43,18.7,10.89,28.07,16.3,3.19,1.85,6.44,1.82,9.64-.06,6.67-3.9,13.25-7.98,20.06-11.62,2.62-1.4,1.76-2.1.27-3.43-2.34-2.1-4.93-4.05-4.91-7.72.04-5.99.04-11.99-.02-17.98-.02-1.92.83-2.75,2.67-2.75,2.59,0,5.19.04,7.78-.03,1.33-.04,1.92.34,2.59,1.71,3.62,7.42,12.25,9.84,19.22,5.51,1.52-.95,2.74-.75,4.12.08,2.27,1.36,4.55,2.71,6.87,3.98,2.69,1.47,5.04,2.77,4.54,6.75-.32,2.55,1.16,5.22,2.84,7.31,4.53,5.65,14.19,6.46,19.61.08,3.01-3.54,4.76-9.47,1.06-15.47-2.07-3.35-9.36-7.33-13.13-5.76-1.92.8-3.82,1.65-5.72,2.51-.82.38-1.47.71-2.47.12-3.31-1.98-6.75-3.74-10.08-5.66-3.48-2.01-3.2-7.59.57-9.39,2.4-1.14,4.64-2.62,6.95-3.94,2.16-1.24,4.2-2.27,6.76-.54,1.16.78,2.51,1.53,4.03,1.85,5.36,1.16,10.89-1.72,14.17-8.03,1.96-3.77,1.38-9.24-2.24-13.31-4.58-5.15-12.53-5.74-17.2-1.95-3.6,2.92-5.72,6.57-5.56,11.3.06,1.75-.28,2.86-2.11,3.75-3.18,1.54-6.15,3.53-9.17,5.39-1.16.71-2.29.73-3.31-.04-1.95-1.46-4.29-1.76-6.51-1.92-4.72-.33-9.39.42-11.73,5.14-1.76,3.54-4.28,4.23-7.72,3.8-1.28-.16-2.59-.04-3.89-.03-2.11.02-3.03-.94-2.98-3.13.1-4.49.26-9-.03-13.48-.35-5.29.78-9.67,5.7-12.45,1.78-1,1.22-1.75-.24-2.59-7.07-4.05-14.14-8.11-21.14-12.28-3.63-2.17-6.87-1.31-10.2.66-4.54,2.69-9.16,5.25-13.72,7.89-6.42,3.71-12.81,7.47-19.23,11.17-2.83,1.63-4.25,3.84-4.15,7.28.19,6.69.05,13.38.05,20.07h.03Z" style="fill: #26553d; stroke-width: 0px;"/>
  <path d="M7.62,56.17c0-6.69.13-13.39-.05-20.07-.09-3.43,1.32-5.65,4.15-7.28,6.42-3.7,12.81-7.46,19.23-11.17,4.57-2.64,9.18-5.2,13.72-7.89,3.32-1.97,6.56-2.83,10.2-.66,7,4.17,14.07,8.23,21.14,12.28,1.46.84,2.02,1.58.24,2.59-4.92,2.78-6.04,7.16-5.7,12.45.29,4.48.13,8.99.03,13.48-.05,2.18.87,3.15,2.98,3.13,1.3,0,2.61-.13,3.89.03,3.44.43,5.97-.26,7.72-3.8,2.34-4.72,7.01-5.47,11.73-5.14,2.22.15,4.56.46,6.51,1.92,1.02.77,2.16.75,3.31.04,3.02-1.86,5.99-3.85,9.17-5.39,1.82-.88,2.17-2,2.11-3.75-.16-4.73,1.96-8.38,5.56-11.3,4.67-3.79,12.62-3.2,17.2,1.95,3.62,4.07,4.2,9.54,2.24,13.31-3.28,6.3-8.81,9.18-14.17,8.03-1.52-.33-2.87-1.07-4.03-1.85-2.56-1.73-4.6-.7-6.76.54-2.31,1.33-4.55,2.8-6.95,3.94-3.77,1.8-4.05,7.37-.57,9.39,3.34,1.93,6.77,3.69,10.08,5.66.99.59,1.64.26,2.47-.12,1.89-.86,3.8-1.71,5.72-2.51,3.77-1.58,11.06,2.41,13.13,5.76,3.7,6,1.95,11.94-1.06,15.47-5.43,6.38-15.08,5.57-19.61-.08-1.68-2.09-3.16-4.76-2.84-7.31.5-3.97-1.85-5.28-4.54-6.75-2.32-1.27-4.6-2.61-6.87-3.98-1.38-.83-2.6-1.03-4.12-.08-6.96,4.33-15.59,1.91-19.22-5.51-.67-1.37-1.26-1.74-2.59-1.71-2.59.07-5.19.04-7.78.03-1.84,0-2.69.83-2.67,2.75.06,5.99.06,11.99.02,17.98-.03,3.67,2.56,5.62,4.91,7.72,1.49,1.33,2.35,2.03-.27,3.43-6.81,3.64-13.39,7.72-20.06,11.62-3.2,1.87-6.44,1.9-9.64.06-9.37-5.41-18.71-10.87-28.07-16.3-1.54-.89-3.11-1.73-4.65-2.62-3.5-2.03-5.6-4.61-5.32-9.12.38-6.37.1-12.78.1-19.17h.01-.03ZM120.38,36.16c.36,2.61-.06,4.46-3.02,5.62-1.59.63-3.24,1.89-4.84,2.77-4.04,2.21-7.67,4.74-13.15,1.73-7.06-3.87-15.91,3.02-15.6,11.1.11,2.89,1.84,4.82,3.47,6.71,3.13,3.62,8.93,5.52,14.13,2.1,2.78-1.83,5.05-1.73,7.92.38,2.47,1.81,5.07,3.74,7.74,4.86,3.3,1.38,3.28,3.51,3.19,6.05-.15,4.41,2.18,7.68,7.38,10.06,3.19,1.46,7.82.65,10.4-1.78,3.75-3.52,4.7-9.43,2.59-14.02-1.78-3.89-5.27-6.01-9.93-5.16-1.81.33-3.87-.69-5.45.73-2.32,2.08-4.52,2.31-6.8.04-.52-.52-1.22-.59-1.87-.82-3.3-1.21-6.09-3.25-8.44-5.81-2.28-2.48-1.15-8.17,1.73-9.91,3.55-2.14,7.45-3.69,10.67-6.36,1.04-.86,2.02-.47,2.7.16,1.82,1.72,4.18,1.69,6.35,2.12,3.76.75,10.2-2.21,11.04-5.44,2.11-8.13.64-14.18-8.99-15.88-2.61-.46-6.05.19-8.02,2.13-2.17,2.15-3.89,5.1-3.21,8.61h0ZM50.47,70.81c6.41.35,10.73-2.62,13.3-8.39.54-1.21,1.27-2.12,2.76-2.44,4.09-.89,8.19-1.55,12.38-1.19,1.88.16,3.41-.59,3.42-2.39.02-1.73-1.76-1.95-3.2-1.8-4.47.49-8.64-1.07-12.92-1.82-1.09-.19-1.78-.92-2.17-1.87-2.78-6.8-7.96-9.11-15.08-8.99-7.19.12-12.94,7.08-13.59,13.47-.73,7.06,6.22,16.64,15.12,15.42h-.02Z" style="fill: #c9d3ce; stroke-width: 0px;"/>
  <path d="M50.47,70.81c-8.89,1.22-15.84-8.36-15.12-15.42.66-6.39,6.4-13.35,13.59-13.47,7.12-.12,12.3,2.19,15.08,8.99.39.94,1.08,1.67,2.17,1.87,4.29.75,8.45,2.31,12.92,1.82,1.44-.16,3.22.07,3.2,1.8-.02,1.8-1.54,2.55-3.42,2.39-4.19-.36-8.29.31-12.38,1.19-1.49.32-2.22,1.22-2.76,2.44-2.56,5.77-6.88,8.73-13.29,8.39h.01ZM61.62,56.5c.23-7.37-5.81-11.32-11.41-11.27-5.7.05-11.26,4.38-11.32,11.09-.06,6.96,5.81,11.33,11.43,11.27,5.71-.06,11.41-4,11.29-11.09h.01Z" style="fill: #eceeed; stroke-width: 0px;"/>
  <path d="M50.26,46.91c6.35-.28,9.7,4.63,9.77,9.43.07,4.8-3.38,9.61-9.64,9.62-5.87,0-9.54-4.66-9.68-9.64-.14-5.16,4.36-9.4,9.56-9.42h0Z" style="fill: #26553d; stroke-width: 0px;"/>
</svg>